<svg xmlns="http://www.w3.org/2000/svg" viewBox="0 0 512 512" role="img" aria-label="Audiobook Library icon">
  <defs>
    <linearGradient id="bg" x1="70" y1="42" x2="442" y2="470" gradientUnits="userSpaceOnUse">
      <stop stop-color="#5ecf9a"/>
      <stop offset="0.46" stop-color="#246b54"/>
      <stop offset="1" stop-color="#0f1f18"/>
    </linearGradient>
    <filter id="shadow" x="-20%" y="-20%" width="140%" height="140%">
      <feDropShadow dx="0" dy="18" stdDeviation="18" flood-color="#04100b" flood-opacity="0.45"/>
    </filter>
  </defs>
  <rect width="512" height="512" rx="118" fill="url(#bg)"/>
  <circle cx="382" cy="128" r="70" fill="#a8e6c8" opacity="0.18"/>
  <g filter="url(#shadow)">
    <path d="M134 144c54-20 92-7 122 22v219c-35-24-74-33-122-14V144z" fill="#eef7f0"/>
    <path d="M378 144c-54-20-92-7-122 22v219c35-24 74-33 122-14V144z" fill="#d5f3e3"/>
    <path d="M256 166v219" stroke="#5ecf9a" stroke-width="14" stroke-linecap="round"/>
    <path d="M316 231v95l80-48-80-47z" fill="#0f1f18"/>
    <path d="M156 191c31-9 56-5 78 12M156 235c31-9 56-5 78 12M156 279c31-9 56-5 78 12" stroke="#246b54" stroke-width="15" stroke-linecap="round" opacity="0.72"/>
  </g>
</svg>
